# xmcd
#
# Track frame offsets:
#   150
#   13742
#   29533
#   55109
#   70249
#   90584
#   106870
#   124054
#   137260
#   150930
#   165537
#   184307
#   227633
#   256227
#   290475
#   311022
#   322750
#
# Disc length: 4589 seconds
#
# Revision: 0
# Processed by: cddbd v1.5.2PL0 Copyright (c) Steve Scherf et al.
# Submitted via: GXTranscoder 2.0.1939
#
DISCID=d711eb11
DTITLE=Chris Thompson - Timeline
DYEAR=2005
DGENRE=Blues
TTITLE0=Land of the Long White Cloud
TTITLE1=Radio Waves
TTITLE2=Dust in the Light
TTITLE3=God´s Own Country
TTITLE4=Forever
TTITLE5=Don´t Stop
TTITLE6=Sche´s not there
TTITLE7=Broad Daylight
TTITLE8=If You Remember Me
TTITLE9=For You
TTITLE10=You´re the Voice
TTITLE11=Blinded by the Light
TTITLE12=Davey´s on the Road again
TTITLE13=Mighty Quinn
TTITLE14=Questions
TTITLE15=Zu Leben
TTITLE16=You´re the Voice
EXTD=
EXTT0=
EXTT1=
EXTT2=
EXTT3=
EXTT4=
EXTT5=
EXTT6=
EXTT7=
EXTT8=
EXTT9=
EXTT10=
EXTT11=
EXTT12=
EXTT13=
EXTT14=
EXTT15=
EXTT16=
PLAYORDER=
